<?xml version="1.0" encoding="utf-8"?>
<!DOCTYPE svg PUBLIC "-//W3C//DTD SVG 1.0//EN" "http://www.w3.org/TR/2001/REC-SVG-20010904/DTD/svg10.dtd">
<svg version="1.0" xmlns="http://www.w3.org/2000/svg" width="5387px" height="1039px" viewBox="0 0 5387 1039" preserveAspectRatio="xMidYMid meet">
 <g fill="#ffffff">
  <path d="M0 519.5 l0 -519.5 31 0 c29.5 0 31 0.1 31 1.9 0 1.6 -1.2 1.9 -10.2 2.5 -5.7 0.4 -16.6 1.7 -24.3 2.9 l-14 2.2 -0.7 4 c-1.6 7.8 -2.1 55.7 -0.9 70.6 8.3 100.1 55.2 174.8 140.6 223.9 53.1 30.6 126.7 50.7 200.1 54.6 l13.1 0.7 0.7 -8.4 c0.9 -10.8 -0.9 -56.2 -2.9 -74.9 -9.4 -85.7 -36 -151.5 -80.1 -197.9 -42.1 -44.3 -101 -71.1 -169.2 -77.2 -12.5 -1.1 -14.2 -1.5 -14.2 -3.1 0 -1.7 6.5 -1.8 161 -1.8 l161 0 0 519.5 0 519.5 -211 0 -211 0 0 -519.5z m267.2 299.4 c17.5 -4.9 34.5 -15.7 52.3 -33.4 31.3 -31.2 42.6 -59.4 34.1 -84.7 -8.1 -24.4 -36.3 -54.2 -57.4 -60.8 -4.5 -1.4 -10.5 -2.3 -18.2 -2.6 -10.1 -0.5 -12.7 -0.2 -21.1 1.9 -25.2 6.6 -49.7 24.1 -66 47.2 -15 21.3 -23.3 45.4 -20.8 60.7 4.2 26.2 24.9 53.7 49.8 66.3 16.8 8.4 30.6 10 47.3 5.4z"/>
  <path d="M498 519.5 l0 -519.5 2444.5 0 2444.5 0 0 519.5 0 519.5 -2444.5 0 -2444.5 0 0 -519.5z m176.6 396.1 c17.1 -3 30.8 -8.7 42.5 -17.5 14.1 -10.8 23.4 -30 27.5 -56.9 3.9 -25.9 -2.5 -46.9 -19.6 -64.3 -16.4 -16.6 -38.7 -27.3 -63 -30 -28.4 -3.2 -56.3 9.9 -74.2 34.7 -10.6 14.8 -20.4 37.8 -22.9 53.7 -2.1 13.2 1 28 8.8 43 9.4 17.9 32.6 32.5 58.3 36.7 4.1 0.6 8.2 1.3 9 1.5 4.6 0.9 26.7 0.3 33.6 -0.9z m876.4 -86.7 c28 -3.8 60.3 -14.1 83.9 -26.6 47.7 -25.5 85.3 -66.8 104.3 -114.8 4 -10.1 8.3 -23.2 9.3 -28.7 0.8 -4.3 3.1 -3.4 -21.5 -8.7 -51.7 -11.3 -106.3 -23.1 -106.9 -23.1 -0.4 0 -1.7 3.3 -3 7.3 -3.1 9.9 -11.1 25.6 -17 33.6 -13.7 18.5 -31 30.1 -53.9 36.2 -11.1 3 -41.9 3.8 -54.7 1.5 -23.1 -4.3 -40.6 -12.9 -55.8 -27.5 -16.6 -16 -27.6 -37.2 -32.4 -62.4 -2.6 -14 -2.4 -45.8 0.5 -58.9 7.9 -35.8 26 -61.2 54.6 -76.4 18.1 -9.6 32.7 -12.9 57.6 -12.7 24.4 0.1 39.3 3.6 54.8 13.1 23 13.9 35.8 32.6 45.7 66.8 0.2 0.8 4.1 0.2 12.2 -1.7 6.5 -1.6 35.4 -8.6 64.3 -15.5 61.2 -14.6 56 -13.2 56 -14.9 0 -3.9 -9.1 -27.9 -15.5 -41 -12.3 -25 -26.5 -44.6 -46.2 -63.6 -81.4 -78.5 -213.2 -90.2 -312.1 -27.5 -14.9 9.5 -25.3 17.7 -38.5 30.5 -19.6 19 -34.1 38.4 -45.7 61.1 -19.2 37.7 -28 76.5 -26.7 118.5 1 31.7 6 56.9 16.7 84.4 22.2 56.9 67.3 104.1 123.8 129.6 46.2 20.9 96.2 28.2 146.2 21.4z m1767.5 1 c39.5 -3.9 78.9 -16.8 108 -35.2 13.2 -8.4 23.4 -16.5 35.4 -28.2 13.1 -12.7 22 -23.5 31.9 -38.9 7.2 -10.9 19.9 -35.3 19 -36.2 -0.7 -0.6 -121 -25.4 -123.4 -25.4 -0.5 0 -2.3 2.4 -4.1 5.3 -14.4 24 -40.6 40.9 -70.3 45.2 -36.3 5.3 -62.4 0.9 -85.2 -14.3 -7.8 -5.1 -21.7 -19.2 -27.1 -27.5 -9.4 -14.2 -17.9 -36 -18.1 -46.2 l-0.1 -6 170.8 -0.3 170.7 -0.2 0 -16.3 c-0.1 -66.5 -13.5 -116.6 -43.4 -161.5 -57.6 -86.4 -170.5 -122.6 -274.4 -88 -75.1 24.9 -130.9 82.1 -153.7 157.4 -7.5 24.6 -10.5 45.9 -10.5 73.9 0 106 60.3 193.5 158 229.2 35.3 12.9 74.9 17.4 116.5 13.2z m539.5 -0.5 c74.8 -9.1 132.2 -43.2 170 -100.9 6.2 -9.5 20.4 -36.4 19.6 -37.2 -0.1 -0.2 -16.9 -3.7 -37.2 -7.8 -20.3 -4.2 -47.8 -9.8 -61 -12.6 -13.3 -2.7 -24.6 -4.9 -25.2 -4.9 -0.5 0 -2.9 3 -5.3 6.7 -5.5 8.5 -17.5 21.2 -25.4 26.8 -15.4 10.9 -32.4 16.4 -57.3 18.5 -40.9 3.5 -71.3 -8.3 -93.6 -36.1 -11.9 -15 -24.1 -43.1 -23.4 -54.3 l0.3 -5.1 170.4 -0.3 170.3 -0.2 -0.5 -29.3 c-0.4 -22.9 -0.9 -32.1 -2.6 -42.7 -11.4 -73.4 -46.2 -130.2 -102.9 -168.3 -10.3 -7 -34.8 -19.1 -48.5 -24.2 -28 -10.3 -61.1 -15.3 -92.2 -14.1 -62.2 2.4 -119 26.2 -162.4 68.1 -39.6 38.3 -63.5 87 -71.3 145.6 -1.8 13.7 -1.5 49.8 0.5 63.6 4.7 31.5 12 55.1 25.4 81.8 18.2 36.3 48.4 69.1 84.8 92 25.5 16.1 59.5 28.6 92 34 22.3 3.6 50.3 3.9 75.5 0.9z m508 0 c58.1 -5.9 104.7 -25.9 134.5 -57.6 17.2 -18.3 27.8 -38.8 33.7 -64.9 3.1 -13.9 3.3 -43.9 0.5 -56.4 -6 -26.5 -15.8 -45.3 -32.7 -62.9 -11.3 -11.7 -22.8 -20.2 -38 -28 -25.1 -12.8 -33.3 -15.1 -110 -30.6 -30 -6.1 -57.8 -11.9 -61.8 -13 -21.8 -6 -30.1 -16.2 -29 -36 0.9 -14.4 6.8 -23.7 19 -29.8 9.2 -4.6 16.7 -6.3 31 -6.9 28.1 -1.3 51.5 5.7 67.6 20.2 6.9 6.2 14.4 17.8 17.2 26.6 1.3 4 2.8 6.8 3.4 6.6 0.6 -0.2 29 -6 63.1 -12.7 34.1 -6.7 62.4 -12.7 62.9 -13.1 1.3 -1.2 -2.5 -13 -7.9 -24.4 -26.1 -55.8 -80.9 -90.7 -159.2 -101.2 -19.9 -2.6 -61.2 -2.4 -80 0.5 -50.7 7.9 -90.2 26.5 -118 55.6 -18.9 19.7 -30.4 41.6 -36.5 69.4 -2.9 13.1 -3.1 39.6 -0.4 52.2 8.6 40 32.5 69.3 72.1 88.5 20.3 9.8 36 14.5 72.1 21.5 11.5 2.3 34.6 6.8 51.4 10 49.9 9.8 60.5 13 69.9 21.5 7.1 6.5 8.6 10.3 8.6 22.5 0 9.8 -0.2 10.9 -3 15.9 -8.7 15.7 -29.7 24.1 -60.5 24.1 -43.9 0 -72.9 -16 -82.4 -45.2 l-2.8 -8.5 -6.6 1.3 c-6.3 1.2 -54.3 11.1 -108 22.1 l-23.3 4.8 0.6 3.5 c1 5.8 7 23 10.9 31.1 10.7 22.9 30.4 44.2 55.1 59.6 45.4 28.3 115.5 41 186.5 33.7z m466 1.6 c33.1 -2.4 60.2 -9.5 87 -23 9.1 -4.6 25.1 -15.1 32.7 -21.6 4 -3.4 5.9 -4.4 8.7 -4.4 l3.6 0 0 18 0 18 71.5 0 71.5 0 0 -230.5 0 -230.5 -71.5 0 -71.5 0 0 18 0 18 -3 0 c-2.2 0 -5.8 -2.1 -13.4 -7.9 -25.3 -19.3 -53.1 -31.5 -85 -37.6 -51.5 -9.7 -98.2 -3.5 -143.1 19.2 -66.7 33.6 -111.5 97.8 -124.6 178.3 -2.6 16.4 -3.6 50.8 -2 68.6 8.1 86.9 56.4 160.2 128.6 195.4 29.6 14.5 57 21.2 93 22.8 1.7 0.1 9.5 -0.3 17.5 -0.8z m-2743.5 -2.1 c5.5 -0.6 15.6 -2.2 22.4 -3.5 119.6 -24.3 200 -119.8 200.1 -237.7 0 -18.6 -1.1 -30.5 -4.6 -48.2 -14.3 -72.7 -60.2 -132.3 -128.1 -166.4 -55.5 -27.8 -121.9 -35.3 -183.4 -20.7 -66.1 15.7 -121.3 53.8 -155.2 107.4 -41.5 65.5 -48 150.3 -17 223.1 24.8 58.5 72.6 104 134.6 128.5 22.4 8.9 49.3 15.3 72.7 17.5 6.3 0.6 13.3 1.3 15.5 1.5 5.7 0.6 31.3 -0.3 43 -1.5z m468.5 -185.4 l0 -174.5 97 0 97 0 0 174.5 0 174.5 70.5 0 70.5 0 0 -174.5 0 -174.5 64.5 0 64.5 0 0 -56 0 -56 -64 0 -64 0 -0.6 -2.7 c-0.4 -1.4 -0.4 -11.9 -0.1 -23.2 0.9 -29.5 4 -39.3 16.3 -51.7 11.5 -11.6 25.4 -16.4 47.6 -16.4 11.6 0 17 0.7 34.8 4.6 l2.6 0.6 14.2 -52.4 c7.9 -28.8 14.5 -53.1 14.8 -54 0.6 -2.1 -1.8 -3.2 -20.1 -9.3 -51.3 -17.3 -109.5 -14.3 -156.9 7.9 -45.3 21.2 -76.5 59.6 -89.1 109.6 -4.2 16.7 -4.8 22.3 -5.4 54.5 l-0.6 32 -96.7 0.3 -96.8 0.2 0 -21.7 c0 -25 1.1 -32 6.5 -43 6.9 -13.9 20 -23.7 37.3 -27.8 10.3 -2.4 33.9 -1.7 47 1.4 5.1 1.3 9.6 2.1 9.8 1.8 1.1 -1 29.5 -106.1 29 -107.2 -0.6 -1.6 -19.6 -8.6 -32.1 -11.8 -37.9 -9.9 -73.3 -9.9 -111.2 -0.2 -32.4 8.4 -57.2 22.3 -79.4 44.4 -23.4 23.5 -38 51.2 -44.9 85.2 -3.2 16.1 -4 26.3 -4 53.7 l0 25.2 -33.5 0 -33.5 0 0 56 0 56 33.5 0 33.5 0 0 174.5 0 174.5 71 0 71 0 0 -174.5z m2814 -56 l0 -230.5 -71 0 -71 0 0 230.5 0 230.5 71 0 71 0 0 -230.5z m-4700 94.4 c19 -4.8 34.9 -13.8 48.6 -27.4 17.4 -17.2 26.1 -35.9 27.1 -58 1 -22.7 -6.1 -40.8 -22.2 -57 -18.4 -18.4 -45.6 -28.8 -75.5 -28.8 -44.6 0 -78.5 23.3 -91.6 63.3 -2.5 7.6 -2.8 9.9 -2.8 21.5 0 11.5 0.4 14 2.8 21.5 5.5 16.6 12.7 28 25.3 40.1 14.9 14.3 34.2 23.9 54.8 27.3 6.6 1 25.1 -0.3 33.5 -2.5z m-75.6 -352.4 c26.9 -3.2 44.8 -8.1 65.1 -18 38.5 -18.8 61.3 -49.7 70.2 -95 2.2 -11.3 2.4 -41.1 0.4 -53.1 l-1.3 -8.2 -12.4 -0.7 c-13.1 -0.7 -20.9 -0.3 -36.4 2.1 -45.7 7.1 -82.1 34.2 -103.3 77 -12.9 25.9 -21.3 57.4 -23.3 86.7 l-0.7 10.7 14.4 0 c7.9 0 20.2 -0.7 27.3 -1.5z m4719.4 -35 c19.8 -3.8 34.9 -11.8 47.4 -25.4 9.6 -10.4 17.6 -25.9 19.4 -37.8 0.3 -2.4 1 -4.3 1.5 -4.3 0.5 0 0.9 -4.7 0.9 -10.5 0 -5.8 -0.4 -10.5 -0.9 -10.5 -0.5 0 -1.2 -1.9 -1.5 -4.2 -1.7 -11.3 -9.2 -26.4 -18.7 -37.8 -9.5 -11.4 -26.9 -22.2 -42.9 -26.6 -10.1 -2.8 -31 -2.6 -41.5 0.4 -22.7 6.6 -42.6 23.2 -52.4 43.7 -11.7 24.3 -11.5 46.6 0.6 71.2 14.8 30.4 52.9 48.5 88.1 41.8z"/>
  <path d="M3187 532.8 c0.1 -10 11.1 -29.9 23.9 -43.2 22 -22.7 49.2 -32.8 83.9 -31.3 17.4 0.8 26.4 3.1 41.1 10.4 9.4 4.7 12.8 7 20.1 13.9 8.7 8.4 15.4 17.3 20.5 27.4 4.6 9.1 7.5 17.8 7.5 22.5 l0 4.5 -98.5 0 -98.5 0 0 -4.2z"/>
  <path d="M3721 534.2 c0 -6.1 6.8 -21.6 14 -32.2 13.4 -19.5 34.6 -34.2 58.6 -40.7 9 -2.5 11.5 -2.7 28.4 -2.7 12 -0.1 20.6 0.4 24.5 1.3 30 6.7 51 23.1 64.8 50.7 4.6 9.1 7.7 18.4 7.7 22.9 l0 3.5 -99 0 -99 0 0 -2.8z"/>
  <path d="M4827 710 c-23.7 -3.3 -49.4 -16.5 -64.1 -32.8 -20.8 -23.1 -30.9 -52.1 -30.9 -88.6 0 -17.9 1.2 -28.7 4.6 -41.6 11.3 -43.2 44.5 -74.5 86.3 -81.4 19.8 -3.3 37.8 -2.8 54.6 1.5 43.7 11.1 76.9 48.2 84.9 94.8 2.1 12.2 2.1 37.4 0.1 50.1 -7.8 48.4 -42.7 86.5 -88.5 96.5 -8.9 1.9 -37.3 2.8 -47 1.5z"/>
  <path d="M2042 710.3 c-28.1 -4.3 -50.7 -15.7 -68.8 -34.7 -22 -23.2 -32.5 -51.3 -32.5 -87.6 -0.1 -39 10.9 -67.2 35.7 -91.5 20.3 -19.8 43.1 -30.2 71.9 -32.6 53.4 -4.4 100.6 26.3 118.5 77.3 4.5 12.8 6.3 23.4 6.9 41.3 1.3 39.6 -10.1 71 -34.6 95.6 -16.8 16.8 -37.1 27.5 -59.9 31.4 -7.7 1.4 -30.5 1.9 -37.2 0.8z"/>
 </g>
 <g fill="#35271e">
  <path d="M419 519.5 l0 -519.5 41 0 41 0 0 519.5 0 519.5 -41 0 -41 0 0 -519.5z"/>
  <path d="M638 919.5 c-0.8 -0.2 -4.9 -0.9 -9 -1.5 -25.7 -4.2 -48.9 -18.8 -58.3 -36.7 -11.1 -21.1 -12.5 -41.7 -4.6 -65.5 9.2 -27.8 25.5 -50 44.9 -61.4 29.4 -17.3 70.6 -14.2 103.1 7.6 8.7 5.9 20.6 18.2 25.2 26 8.8 15.2 11.6 34.9 8.1 57.4 -6.8 44 -27.5 65.7 -69.8 73.2 -7 1.2 -34.7 1.8 -39.6 0.9z"/>
  <path d="M1494.1 833.9 c-108.1 -8.4 -194.3 -75.3 -222.9 -173.1 -6.8 -23 -9.2 -39.4 -9.9 -67.3 -0.8 -30.3 2.1 -53.3 9.8 -79.5 11.7 -39.6 32.5 -73.9 62.6 -103.1 13.2 -12.8 23.6 -21 38.5 -30.5 82.8 -52.5 195.5 -54.1 277.5 -3.9 50.3 30.9 85.5 77.2 101.8 133.9 1.4 4.9 2.4 9 2.3 9.1 -0.2 0.1 -25 6.1 -55.3 13.4 -30.2 7.2 -61.5 14.7 -69.4 16.6 -8 1.9 -14.6 3.3 -14.8 3.2 -0.1 -0.2 -1.4 -4.3 -2.8 -9.3 -3.6 -12.4 -12.2 -29.3 -19.8 -38.9 -13.2 -16.4 -31.4 -27.4 -53.2 -32 -10.9 -2.3 -34.1 -2.4 -45.6 -0.2 -39.3 7.7 -69.2 33.9 -81.9 71.5 -4.7 14.2 -6.3 24.8 -6.3 42.7 -0.1 19.8 1.5 30.1 6.9 45.7 13.2 38.1 41.9 62.7 81.9 70.2 11.8 2.3 39.3 1.5 49.7 -1.3 22.9 -6.1 40.2 -17.7 53.9 -36.2 5.9 -8.1 13.9 -23.7 17 -33.8 1.3 -4 2.9 -7.5 3.5 -7.8 1 -0.4 135.1 28.3 136.1 29.1 0.4 0.3 -5.5 21.8 -7.6 28.1 -10.6 30.4 -27.6 57.9 -50.5 81.4 -17.5 17.8 -36 31.8 -57.7 43.4 -24.9 13.3 -61.3 24.5 -88.4 27.3 -3.3 0.4 -6.3 0.8 -6.6 1 -1.5 0.8 -39.2 1.1 -48.8 0.3z"/>
  <path d="M3269.5 834.3 c-89.2 -6 -166.6 -56.5 -203.5 -132.8 -12.3 -25.6 -20.5 -53.3 -23.5 -80 -0.3 -2.7 -0.8 -6.1 -1.1 -7.5 -1.2 -5.2 -0.4 -49.6 1.1 -60.7 7.1 -54.2 27.9 -99.2 63.1 -137 39.4 -42.3 97.2 -69.8 158.4 -75.4 12.4 -1.1 47.2 -0.8 54 0.5 1.4 0.3 6.1 1 10.5 1.6 4.4 0.6 13.4 2.4 20 4 95.3 22.7 162.6 98.9 176.9 200.5 2.5 17.6 3.3 29.5 3.5 54.2 l0.2 23.3 -170.8 0.2 -170.8 0.3 0.3 3.5 c0.4 4.9 5.7 20.1 10.2 29.2 5.7 11.5 10.6 18.3 19.8 27.9 23.8 24.8 53.4 33.4 94.2 27.4 30 -4.4 54.7 -20.3 70.3 -45.2 2.2 -3.5 4.4 -6.3 5.1 -6.3 1 0 30.3 5.9 104.9 21.2 l25.8 5.2 -0.6 2.6 c-1.2 5 -13.7 28.8 -20.6 39.6 -17.9 27.4 -40.7 50.1 -67.4 67.1 -28.4 18 -64.5 30.1 -104.5 34.9 -11.8 1.4 -44.7 2.4 -55.5 1.7z m111.5 -301.8 c0 -2 -4.2 -13 -7.5 -19.5 -5.1 -10.1 -11.8 -19 -20.5 -27.4 -7.3 -6.9 -10.7 -9.2 -20.1 -13.9 -13.7 -6.8 -23.6 -9.5 -38.4 -10.3 -23.9 -1.4 -47.8 5.4 -67 19.1 -8.3 5.9 -20.3 18.6 -26 27.4 -4.5 6.9 -11.4 22 -11.5 24.9 0 0.9 19.8 1.2 95.5 1.2 83.6 0 95.5 -0.2 95.5 -1.5z"/>
  <path d="M3796 833.5 c-58.3 -5.9 -108.7 -28.7 -148.4 -67.4 -39 -38.1 -61.4 -83.4 -70.3 -142.4 -2.1 -13.8 -2.4 -55.4 -0.5 -69.6 4.1 -30.5 12 -56.7 24.9 -82.6 30.3 -60.8 86.7 -105.8 154.2 -123.1 23.2 -6 35.7 -7.6 62.1 -7.9 24.8 -0.4 36.8 0.6 57 4.6 44.3 8.9 85.6 30.7 116.9 61.9 41.3 41 66 97.9 70.7 162.5 1.1 15 1 55.5 -0.1 55.5 -0.5 0 -77.3 0.1 -170.5 0.3 l-169.5 0.2 -0.3 2.1 c-0.2 1.1 1.3 7 3.3 13 10.2 30.6 28.2 52.7 53.2 65.3 31.3 15.7 82.6 11.4 111.7 -9.3 7.8 -5.6 19.9 -18.3 25.4 -26.6 2.3 -3.5 4.3 -6.9 4.5 -7.5 0.2 -0.6 11.5 1.3 28.8 4.8 15.6 3.2 45.4 9.3 66.1 13.5 35.6 7.3 37.7 7.8 37.2 9.7 -1.7 5.7 -15.1 31.4 -21.4 41 -38 57.9 -94.3 91.3 -170.5 101 -16.5 2.1 -48.3 2.6 -64.5 1z m119.4 -302.2 c-2.2 -9 -10.9 -26.3 -17.7 -35 -13.5 -17.4 -31.2 -28.3 -54.2 -33.4 -3.7 -0.9 -11.9 -1.3 -21.5 -1.3 -13.5 0.1 -16.8 0.4 -25.4 2.7 -33.1 8.9 -60 33.4 -70.7 64.4 l-1.8 5.3 96 0 95.9 0 -0.6 -2.7z"/>
  <path d="M4313.9 834.7 c-0.2 -0.3 -6.3 -0.7 -13.5 -1 -25.5 -1.2 -54.6 -6.5 -79.4 -14.7 -60.5 -19.8 -98.7 -58.4 -110.5 -111.3 -1 -4.4 -1.4 -8.2 -0.9 -8.6 0.9 -0.7 10.7 -2.8 75.9 -16.1 16 -3.3 37.8 -7.7 48.5 -9.9 10.7 -2.2 19.5 -3.9 19.5 -3.8 0.1 0.1 1.4 4.2 3 9.1 7.3 23 25.9 37.6 54.8 43.1 12.3 2.3 28.9 3 39.3 1.5 22 -3.1 36 -10.6 42.9 -23.1 2.6 -4.7 3 -6.4 3 -12.9 -0.1 -8.9 -2.1 -13.6 -8.6 -19.5 -9.4 -8.5 -20 -11.7 -69.9 -21.5 -16.8 -3.2 -39.9 -7.7 -51.4 -10 -36.1 -7 -51.8 -11.7 -72.1 -21.5 -39.6 -19.2 -63.4 -48.4 -72.1 -88.5 -2.8 -12.9 -2.6 -44.9 0.4 -58.2 6.2 -27.9 17.6 -49.7 36.5 -69.4 27.7 -29 67.3 -47.7 117.4 -55.5 18.3 -2.8 60.2 -3.5 80.3 -1.3 46.9 5.2 88.8 20.5 118.3 43.1 26.3 20.2 46.3 49 55.2 79.8 1.4 4.8 2.4 9 2.1 9.2 -0.2 0.2 -29.8 6.2 -65.7 13.3 -36 7.2 -66.3 13.2 -67.4 13.5 -1.8 0.4 -2.4 -0.6 -4.3 -6.9 -7.4 -23.8 -29.8 -41.2 -59.1 -46.1 -10.6 -1.7 -30.2 -1.3 -38.6 0.9 -18.7 5 -29.5 15.9 -31.1 31.3 -1.7 16.3 8 27.6 28.8 33.3 4 1.1 31.8 6.9 61.8 13 76.7 15.5 84.9 17.8 110 30.6 41.1 21.1 65.7 55.1 72.1 99.8 1 7.6 1.3 32.2 0.4 39.6 -6.3 50.2 -33.9 88.1 -81.5 112 -24.2 12.2 -54.2 20.7 -84.5 24 -5.5 0.6 -11.3 1.3 -13 1.5 -4 0.7 -46 1.7 -46.6 1.2z"/>
  <path d="M4801 834.3 c-10 -0.7 -27.6 -3.5 -38.7 -6.3 -16.5 -4 -27.6 -8.1 -43.8 -16 -71.8 -34.9 -119.9 -107.7 -128.5 -194 -1.2 -12.5 -1.5 -44.4 -0.5 -55.5 5.9 -65.4 31.2 -120.4 74 -161.3 34.5 -33 77.3 -53.4 125.5 -59.7 10.4 -1.4 50.2 -1.4 59.5 0 42.4 6.3 72.9 18.4 102.1 40.6 l10.4 7.9 0 -18 0 -18 74.5 0 74.5 0 0 233.5 0 233.5 -74.5 0 -74.5 0 0 -18 c0 -9.9 -0.3 -18 -0.6 -18 -0.3 0 -2.9 2 -5.7 4.4 -27.7 23.6 -66.6 39 -110.7 44.1 -6.4 0.7 -36.4 1.3 -43 0.8z m69.5 -128.8 c45.9 -9.6 81.1 -47.8 89 -96.5 2 -12.4 1.9 -32.2 -0.1 -44.1 -6.7 -39.3 -31.1 -71.9 -65.6 -87.8 -15.8 -7.3 -29.4 -10.3 -47.3 -10.3 -30.7 0 -57.7 11 -78 31.6 -22.4 22.9 -33.5 52.7 -33.5 90.2 0 40.5 16.2 76.4 44.1 97.3 14 10.6 33.5 18.6 50.9 21.1 9.3 1.3 31.1 0.5 40.5 -1.5z"/>
  <path d="M2042.5 833.4 c-2.2 -0.2 -9.2 -0.9 -15.5 -1.5 -84.6 -7.9 -160.4 -56.5 -198.3 -126.9 -17.5 -32.7 -26.8 -68.4 -28.3 -108.5 -3.2 -86 35 -162.7 104.2 -209.3 34 -22.9 73.6 -37.5 116.9 -43.1 18.6 -2.4 50.5 -2.7 68.6 -0.6 121.8 14.2 210.6 100.2 222.9 215.7 1.4 14 1.2 45.3 -0.5 59.3 -6.5 54.4 -28.1 100.5 -65 138.4 -35.6 36.6 -80.7 60.8 -133.5 71.4 -6.9 1.4 -15.4 2.9 -19 3.2 -3.6 0.4 -7.6 0.9 -9 1.1 -3.7 0.6 -38.9 1.3 -43.5 0.8z m32 -126.5 c35.8 -5.4 69 -30.7 84.7 -64.6 13.7 -29.7 15.5 -67.4 4.6 -98.1 -12 -34 -37.2 -59.7 -70.4 -71.5 -11.9 -4.2 -21.8 -5.9 -35.4 -5.9 -43.7 0.1 -83.5 25.7 -102.6 65.9 -8 16.9 -11.7 34.4 -11.7 55.3 0.1 45 21.3 83.3 58.2 105 10.9 6.4 26.9 11.7 43.1 14.4 4.5 0.7 23.4 0.4 29.5 -0.5z"/>
  <path d="M237 823.6 c-17.5 -3.8 -31.6 -12.1 -45.6 -26.8 -19.3 -20.4 -27.8 -43.9 -24 -66.6 3.5 -21.5 16.4 -44.9 35.1 -63.7 20.7 -20.8 46.3 -32.5 71.5 -32.6 21.9 -0.1 33.5 4.1 50.6 18.7 7.3 6.2 19.7 21.1 25.2 30.3 12.5 21 13.1 44.4 1.8 67.6 -11.8 24 -42.4 54.4 -66.1 65.6 -16.1 7.6 -34.6 10.4 -48.5 7.5z"/>
  <path d="M2412 646.5 l0 -174.5 -33.5 0 -33.5 0 0 -59 0 -59 33.5 0 33.5 0 0 -25.2 c0 -27.4 0.8 -37.6 4 -53.7 6.9 -34 21.5 -61.7 44.9 -85.2 22.2 -22.1 47 -36 79.4 -44.3 23.4 -6.1 42.8 -8.2 66.7 -7.3 26.1 1.1 47.9 5.4 72.3 14.4 9.7 3.6 12.6 5.1 12.3 6.3 -0.3 0.8 -7.3 26.7 -15.7 57.5 -8.4 30.8 -15.3 56.1 -15.4 56.2 -0.1 0.2 -5.5 -1.1 -12.1 -2.8 -15.7 -4.1 -33.6 -5 -44.5 -2.4 -17.4 4.1 -30.5 13.9 -37.4 27.8 -5.2 10.7 -6.5 18.2 -6.5 40 l0 18.7 93.8 -0.2 93.7 -0.3 0.2 -27.5 c0.4 -42.9 4.6 -64.9 17.8 -92.5 24.5 -51.2 71.6 -83.7 134.7 -93.1 14.4 -2.1 45.5 -2.6 59.8 -0.9 21.2 2.5 37.3 6.5 57.8 14.2 6.4 2.5 9.2 4.1 9.2 5.2 -0.1 1.9 -30.5 112.9 -31.2 113.6 -0.3 0.3 -2.7 -0.2 -5.4 -1 -10.5 -3.2 -24.8 -5.5 -34.3 -5.5 -19 0.1 -33.6 5.4 -44.5 16.4 -11.8 11.9 -15.3 22.2 -16.2 48.6 -0.4 9.7 -0.4 18.9 0 20.3 l0.6 2.7 64 0 64 0 0 59 0 59 -64.5 0 -64.5 0 0 174.3 0 174.2 -73.5 0.3 c-69.5 0.2 -73.5 0.1 -73.5 -1.5 0 -1 0 -79.5 0 -174.5 l0 -172.8 -94 0 -94 0 0 174.5 0 174.5 -74 0 -74 0 0 -174.5z"/>
  <path d="M5225.8 819.3 c-0.2 -0.9 -0.2 -106 0 -233.5 l0.2 -231.8 74.3 0 74.2 0 -0.3 231.7 c-0.1 127.5 -0.2 232.6 -0.2 233.6 0 1.6 -4.2 1.7 -73.9 1.7 -68.4 0 -74 -0.1 -74.3 -1.7z"/>
  <path d="M634.5 687.3 c-26 -4.1 -50.4 -18.8 -66.2 -39.8 -19.9 -26.4 -22.9 -63.2 -7.6 -91.5 11.7 -21.7 28.4 -35.7 51.1 -43 14.2 -4.6 24.6 -6 40.7 -5.5 31.2 1 56.9 10.9 75 29 15.5 15.5 22.6 33.1 22.7 56 0 25.8 -8.7 46.2 -27.6 65 -9.7 9.6 -19.8 16.5 -31.5 21.6 -14 6 -23.6 8 -39.6 8.4 -7.7 0.2 -15.3 0.1 -17 -0.2z"/>
  <path d="M343.5 365.3 c-1.6 -0.1 -8.6 -0.8 -15.5 -1.4 -43.6 -3.7 -93.6 -15.5 -133 -31.1 -81 -32.2 -137.7 -85.7 -165.8 -156.4 -9.8 -24.6 -17.4 -56.2 -19.7 -82.4 -0.4 -4.1 -0.9 -8.8 -1.1 -10.5 -1.3 -10.5 -0.2 -62.3 1.5 -73 l0.7 -4 14 -2.2 c40.2 -6.1 81.1 -5.7 119.9 1.3 100.6 18.2 170.4 79.8 202.9 179.1 15.1 46.2 22.2 97.7 22.1 159.3 l0 21.5 -11.5 0.1 c-6.3 0 -12.8 -0.1 -14.5 -0.3z"/>
  <path d="M559.6 334.2 l-8.9 -0.3 0.6 -13.2 c1.1 -21.8 6.7 -49 14.3 -69.4 20.9 -55.8 58.5 -88.6 112.4 -97.9 9.4 -1.6 37.9 -2.6 49.1 -1.7 l5.7 0.5 1.3 8.1 c2.1 12.4 1.8 47.8 -0.4 59.2 -7.1 36 -22.8 62.6 -48.6 82.1 -9.5 7.3 -30 17.7 -42.6 21.8 -23.9 7.7 -54.8 11.7 -82.9 10.8z"/>
  <path d="M5283.7 298 c-38.1 -6.4 -64.5 -34.2 -68.9 -72.4 -2.5 -21.9 4.1 -45.2 17.6 -62 13.8 -17.2 34.9 -29 55.4 -31.1 11.3 -1.1 13.8 -1.2 21.6 -0.3 31.6 3.4 57.7 22.2 70.3 50.6 8.5 19.3 8.5 48.1 0 67.4 -13.6 30.8 -44 49.1 -80.6 48.7 -5.8 -0.1 -12.8 -0.5 -15.4 -0.9z"/>
 </g>
</svg>